# xmcd
#
# Track frame offsets: 
#        150
#        24750
#        65761
#        84629
#        98429
#        122784
#        145317
#        177495
#        195082
#        208847
#        219653
#        247633
#        263343
#        280872
#
# Disc length: 3950 seconds
#
# Revision: 0
# Processed by: cddbd v1.5.2PL0 Copyright (c) Steve Scherf et al.
# Submitted via: ExactAudioCopyFreeDBPlugin 1.0
#
DISCID=bc0f6c0e
DTITLE=Raul Jaurena (Bd.) Bernd Ruf (Klar) - Tango Tales - Angel Baila
DTITLE=rin
DYEAR=1900
DGENRE=Tango
TTITLE0=El Choclo
TTITLE1=Aire de Candombe
TTITLE2=Angel Bailarin
TTITLE3=El Llorón
TTITLE4=Responso
TTITLE5=El dia que me quieras
TTITLE6=Preluio y Tango°Preludio
TTITLE7=Preluio y Tango°Tango
TTITLE8=El centtrerriano
TTITLE9=El Botija
TTITLE10=Nightclub 1960
TTITLE11=Soledad
TTITLE12=Desde el alma
TTITLE13=Sus ojos se cerraron
EXTD=
EXTT0=
EXTT1=
EXTT2=
EXTT3=
EXTT4=
EXTT5=
EXTT6=
EXTT7=
EXTT8=
EXTT9=
EXTT10=
EXTT11=
EXTT12=
EXTT13=
PLAYORDER=
